<?xml version="1.0" encoding="utf-8"?>
<svg xmlns="http://www.w3.org/2000/svg" viewBox="87.9999 74.9675 230 300" width="230px" height="300px"><defs><linearGradient gradientUnits="userSpaceOnUse" x1="300.257" y1="258.188" x2="300.257" y2="258.216" id="gradient-0"><stop offset="0" style="stop-color: rgb(65.49% 49.412% 26.275%)"/><stop offset="1" style="stop-color: rgb(41.604% 28.024% 4.9915%)"/></linearGradient><linearGradient gradientUnits="userSpaceOnUse" x1="302.97" y1="193.526" x2="302.97" y2="277.922" id="gradient-1"><stop offset="0" style="stop-color: rgb(65.49% 49.412% 26.275%)"/><stop offset="1" style="stop-color: rgb(41.604% 28.024% 4.9915%)"/></linearGradient><linearGradient gradientUnits="userSpaceOnUse" x1="311.001" y1="214.772" x2="311.001" y2="231.95" id="gradient-2"><stop offset="0" style="stop-color: rgb(65.49% 49.412% 26.275%)"/><stop offset="1" style="stop-color: rgb(41.604% 28.024% 4.9915%)"/></linearGradient><linearGradient gradientUnits="userSpaceOnUse" x1="318.143" y1="213.12" x2="318.143" y2="217.323" id="gradient-3"><stop offset="0" style="stop-color: rgb(65.49% 49.412% 26.275%)"/><stop offset="1" style="stop-color: rgb(41.604% 28.024% 4.9915%)"/></linearGradient><linearGradient gradientUnits="userSpaceOnUse" x1="313.117" y1="196.249" x2="313.117" y2="213.254" id="gradient-4"><stop offset="0" style="stop-color: rgb(65.49% 49.412% 26.275%)"/><stop offset="1" style="stop-color: rgb(41.604% 28.024% 4.9915%)"/></linearGradient><linearGradient gradientUnits="userSpaceOnUse" x1="322.551" y1="188.253" x2="322.551" y2="213.446" id="gradient-5"><stop offset="0" style="stop-color: rgb(65.49% 49.412% 26.275%)"/><stop offset="1" style="stop-color: rgb(41.604% 28.024% 4.9915%)"/></linearGradient><linearGradient gradientUnits="userSpaceOnUse" x1="331.458" y1="203.275" x2="331.458" y2="209.592" id="gradient-6"><stop offset="0" style="stop-color: rgb(65.49% 49.412% 26.275%)"/><stop offset="1" style="stop-color: rgb(41.604% 28.024% 4.9915%)"/></linearGradient><linearGradient gradientUnits="userSpaceOnUse" x1="326.567" y1="214.493" x2="326.567" y2="282.994" id="gradient-7"><stop offset="0" style="stop-color: rgb(65.49% 49.412% 26.275%)"/><stop offset="1" style="stop-color: rgb(41.604% 28.024% 4.9915%)"/></linearGradient><linearGradient gradientUnits="userSpaceOnUse" x1="315.569" y1="252.812" x2="315.569" y2="267.379" id="gradient-8"><stop offset="0" style="stop-color: rgb(65.49% 49.412% 26.275%)"/><stop offset="1" style="stop-color: rgb(41.604% 28.024% 4.9915%)"/></linearGradient><linearGradient gradientUnits="userSpaceOnUse" x1="315.397" y1="260.872" x2="315.397" y2="276.553" id="gradient-9"><stop offset="0" style="stop-color: rgb(65.49% 49.412% 26.275%)"/><stop offset="1" style="stop-color: rgb(41.604% 28.024% 4.9915%)"/></linearGradient><linearGradient gradientUnits="userSpaceOnUse" x1="335.234" y1="214.185" x2="335.234" y2="228.368" id="gradient-10"><stop offset="0" style="stop-color: rgb(65.49% 49.412% 26.275%)"/><stop offset="1" style="stop-color: rgb(41.604% 28.024% 4.9915%)"/></linearGradient><linearGradient gradientUnits="userSpaceOnUse" x1="323.608" y1="223.627" x2="323.608" y2="224.905" id="gradient-11"><stop offset="0" style="stop-color: rgb(65.49% 49.412% 26.275%)"/><stop offset="1" style="stop-color: rgb(41.604% 28.024% 4.9915%)"/></linearGradient><linearGradient gradientUnits="userSpaceOnUse" x1="321.969" y1="232.829" x2="321.969" y2="242.382" id="gradient-12"><stop offset="0" style="stop-color: rgb(65.49% 49.412% 26.275%)"/><stop offset="1" style="stop-color: rgb(41.604% 28.024% 4.9915%)"/></linearGradient><linearGradient gradientUnits="userSpaceOnUse" x1="331.505" y1="237.894" x2="331.505" y2="251.735" id="gradient-13"><stop offset="0" style="stop-color: rgb(65.49% 49.412% 26.275%)"/><stop offset="1" style="stop-color: rgb(41.604% 28.024% 4.9915%)"/></linearGradient><linearGradient gradientUnits="userSpaceOnUse" x1="338.997" y1="232.596" x2="338.997" y2="242.947" id="gradient-14"><stop offset="0" style="stop-color: rgb(65.49% 49.412% 26.275%)"/><stop offset="1" style="stop-color: rgb(41.604% 28.024% 4.9915%)"/></linearGradient><linearGradient gradientUnits="userSpaceOnUse" x1="338.544" y1="255.745" x2="338.544" y2="260.742" id="gradient-15"><stop offset="0" style="stop-color: rgb(65.49% 49.412% 26.275%)"/><stop offset="1" style="stop-color: rgb(41.604% 28.024% 4.9915%)"/></linearGradient></defs><g transform="matrix(2.4353930950164795, 0, 0, 2.352924108505249, -534.3404541015625, -367.9776916503906)" id="object-0" style=""><circle style="fill: rgb(216, 216, 216); fill-opacity: 0; stroke-width: 2px; stroke: rgb(164, 102, 36);" cx="269.575" cy="209.865" r="5.772"/><circle style="fill: rgb(216, 216, 216); fill-opacity: 0; stroke-width: 2; stroke: rgb(164, 102, 36);" cx="288.585" cy="194.156" r="5.772"/><circle style="fill: rgb(216, 216, 216); fill-opacity: 0; stroke-width: 2; stroke: rgb(164, 102, 36);" cx="288.498" cy="216.943" r="5.772"/><circle style="fill: rgb(216, 216, 216); fill-opacity: 0; stroke-width: 2; stroke: rgb(164, 102, 36);" cx="261.312" cy="234.651" r="5.772"/><circle style="fill: rgb(216, 216, 216); fill-opacity: 0; stroke-width: 2; stroke: rgb(164, 102, 36);" cx="282.741" cy="238.059" r="5.772"/><circle style="fill: rgb(216, 216, 216); fill-opacity: 0; stroke-width: 2; stroke: rgb(164, 102, 36);" cx="269.817" cy="262.274" r="5.772"/><circle style="fill: rgb(216, 216, 216); fill-opacity: 0; stroke-width: 2; stroke: rgb(164, 102, 36);" cx="291.807" cy="258.226" r="5.772"/><circle style="fill: rgb(216, 216, 216); fill-opacity: 0; stroke-width: 2; stroke: rgb(164, 102, 36);" cx="288.975" cy="278.203" r="5.772"/><line style="fill: rgb(216, 216, 216); stroke-width: 2px; stroke: rgb(158, 106, 34);" x1="267.338" y1="215.102" x2="262.662" y2="228.924"/><line style="fill: rgb(216, 216, 216); stroke-width: 2px; stroke: rgb(158, 106, 34);" x1="271.996" y1="214.957" x2="280.445" y2="232.618"/><line style="fill: rgb(216, 216, 216); stroke-width: 2px; stroke: rgb(167, 126, 67);" x1="287.088" y1="222.752" x2="284.385" y2="232.287"/><line style="fill: rgb(216, 216, 216); stroke-width: 2px; stroke: rgb(164, 102, 36);" x1="288.716" y1="211.019" x2="289.167" y2="199.857"/><line style="fill: rgb(216, 216, 216); stroke-width: 2px; stroke: rgb(158, 106, 34);" x1="283.095" y1="196.15" x2="273.296" y2="204.416"/><line style="fill: rgb(216, 216, 216); stroke-width: 2px; stroke: rgb(158, 106, 34);" x1="280.095" y1="243.186" x2="272.259" y2="256.869"/><line style="fill: rgb(216, 216, 216); stroke-width: 2px; stroke: rgb(158, 106, 34);" x1="266.637" y1="257.123" x2="261.563" y2="240.826"/><line style="fill: rgb(216, 216, 216); stroke-width: 2px; stroke: rgb(167, 126, 67);" x1="285.312" y1="243.097" x2="289.241" y2="253.002"/><line style="fill: rgb(216, 216, 216); stroke-width: 2px; stroke: rgb(167, 126, 67);" x1="291.59" y1="264.095" x2="290.302" y2="272.787"/><line style="fill: rgb(216, 216, 216); stroke-width: 2px; stroke: rgb(158, 106, 34);" x1="283.551" y1="275.758" x2="272.084" y2="267.866"/><line style="fill: rgb(216, 216, 216); stroke-width: 2px; stroke: url(&quot;#gradient-0&quot;);" x1="297.674" y1="258.216" x2="302.839" y2="258.188"/><line style="fill: rgb(216, 216, 216); stroke-width: 2px; stroke: rgb(188, 151, 90);" x1="289.047" y1="238.102" x2="303.441" y2="236.743"/><line style="fill: rgb(216, 216, 216); stroke-width: 2px; stroke: rgb(167, 126, 67);" x1="276.93" y1="237.379" x2="267.724" y2="235.563"/><line style="fill: rgb(216, 216, 216); stroke-width: 2px; stroke: rgb(167, 126, 67);" x1="294.673" y1="279.025" x2="303.333" y2="277.586"/><line style="fill: rgb(216, 216, 216); stroke-width: 2px; stroke: rgb(167, 126, 67);" x1="294.305" y1="216.846" x2="303.34" y2="216.832"/><line style="fill: rgb(216, 216, 216); stroke-width: 2px; stroke: rgb(167, 126, 67);" x1="294.444" y1="192.194" x2="302.958" y2="193.714"/><line style="fill: rgb(216, 216, 216); stroke-width: 2px; stroke-linecap: round; stroke: url(&quot;#gradient-1&quot;);" x1="302.843" y1="193.526" x2="303.097" y2="277.922"/><path style="fill: rgb(216, 216, 216); stroke-width: 2px; stroke-linejoin: round; stroke-linecap: round; paint-order: fill; fill-opacity: 0; stroke: url(&quot;#gradient-2&quot;);" d="M 303.637 214.964 C 308.328 214.142 312.426 216.122 314.878 217.914 C 320.591 224.003 317.942 229.629 316.29 231.95"/><path style="fill: rgb(216, 216, 216); stroke-width: 2px; stroke-linecap: round; stroke-linejoin: round; stroke: url(&quot;#gradient-3&quot;);" d="M 314.984 217.323 C 318.532 213.324 317.368 214.708 321.302 213.12"/><path style="fill: rgb(216, 216, 216); stroke-linecap: round; stroke-width: 2px; fill-opacity: 0; stroke: url(&quot;#gradient-4&quot;);" d="M 303.191 213.254 C 304.295 206.258 304.641 205.083 306.503 204.253 C 310.583 202.435 312.211 206.86 319.164 206.658 C 324.219 205.132 323.497 202.445 321.67 198.974 C 318.224 197.017 316.242 196.119 312.641 196.264"/><path style="fill: rgb(216, 216, 216); fill-opacity: 0; stroke-width: 2px; stroke-linecap: round; stroke-linejoin: round; stroke: url(&quot;#gradient-5&quot;);" d="M 302.829 193.755 C 304.956 186.191 314.177 187.954 320.352 190.115 C 330.487 193.662 333.259 198.483 335.723 203.382 C 342.718 205.269 341.839 209.152 342.274 213.446"/><path style="stroke-linejoin: round; fill: rgba(216, 216, 216, 0); fill-opacity: 0; stroke-width: 2px; stroke-linecap: round; stroke: url(&quot;#gradient-6&quot;);" d="M 335.698 203.275 C 330.249 204.053 329.045 205.153 327.217 209.592"/><path style="fill: rgb(216, 216, 216); fill-opacity: 0; stroke-linecap: round; stroke-linejoin: round; stroke-width: 2px; stroke: url(&quot;#gradient-7&quot;);" d="M 342.415 214.493 C 347.74 217.962 348.457 222.179 345.71 228.642 C 354.516 242.885 347.782 252.487 342.656 259.469 C 340.972 267.185 339.542 267.625 333.797 269.386 C 328.896 282.326 310.609 287.54 303.154 278.355"/><path style="fill: rgb(216, 216, 216); fill-opacity: 0; stroke-linecap: round; stroke-linejoin: round; stroke-width: 2px; stroke: url(&quot;#gradient-8&quot;);" d="M 309.768 253.099 C 315.912 251.493 321.813 256.961 321.344 261.321 C 316.133 261.956 315.213 265.054 315.259 267.379"/><path style="fill: rgb(216, 216, 216); stroke-width: 2px; stroke-linecap: round; stroke-linejoin: round; fill-opacity: 0; stroke: url(&quot;#gradient-9&quot;);" d="M 320.931 260.872 C 336.456 267.171 322.417 282.145 303.214 274.362"/><path style="fill: rgb(216, 216, 216); stroke-linecap: round; stroke-linejoin: round; stroke-width: 2px; fill-opacity: 0; stroke: url(&quot;#gradient-10&quot;);" d="M 341.954 214.7 C 330.693 211.385 322.683 225.041 333.953 228.368"/><path style="fill: rgb(216, 216, 216); stroke-linecap: round; stroke-linejoin: round; stroke-width: 2px; fill-opacity: 0; stroke: url(&quot;#gradient-11&quot;);" d="M 318.413 224.905 C 322.472 223.369 324.903 223.274 328.803 224.318"/><path style="fill: rgb(216, 216, 216); fill-opacity: 0; stroke-linecap: round; stroke-linejoin: round; stroke-width: 2px; stroke: url(&quot;#gradient-12&quot;);" d="M 310.418 232.829 C 310.498 244.366 331.534 246.276 333.519 234.001"/><path style="fill: rgb(216, 216, 216); stroke-width: 2px; stroke-linecap: round; stroke-linejoin: round; fill-opacity: 0; stroke: url(&quot;#gradient-13&quot;);" d="M 333.397 237.894 C 343.509 243.593 335.145 255.969 325.033 250.27"/><path style="fill: rgb(216, 216, 216); stroke-width: 2px; stroke-linecap: round; stroke-linejoin: round; fill-opacity: 0; stroke: url(&quot;#gradient-14&quot;);" d="M 339.825 232.596 C 340.484 237.381 340.131 238.459 337.873 242.947"/><path style="fill: rgb(216, 216, 216); stroke-width: 2px; stroke-linecap: round; stroke-linejoin: round; fill-opacity: 0; stroke: url(&quot;#gradient-15&quot;);" d="M 341.836 260.742 C 341.707 257.76 337.947 255.077 335.253 255.894"/><polyline style="fill: rgb(184, 155, 94); fill-opacity: 0; stroke-width: 4px; stroke-linejoin: round; stroke-linecap: square; stroke: rgb(186, 154, 92);" points="270.851 301.921 275.452 314.022 279.431 314.003 284.038 301.907"/><line x1="289.22" y1="301.203" x2="298.14" y2="301.181"/><line x1="288.766" y1="301.195" x2="298.832" y2="301.27" style="stroke: rgb(186, 154, 92); stroke-width: 4px;"/><line x1="288.394" y1="313.828" x2="299.328" y2="313.85" style="stroke-width: 4px; stroke: rgb(186, 154, 92);"/><line x1="301.296" y1="301.49" x2="317.373" y2="301.378" style="stroke-width: 4px; stroke: rgb(186, 154, 92);"/><line x1="309.297" y1="300.669" x2="309.388" y2="315.754" style="fill-opacity: 0; stroke-width: 4px; stroke: rgb(186, 154, 92);"/><polyline points="319.801 315.162 325.438 301.514 329.127 301.53 334.8 315.167" style="fill-opacity: 0; stroke-width: 4px; stroke: rgb(186, 154, 92);"/><line x1="321.637" y1="310.852" x2="333.701" y2="310.832" style="stroke: rgb(186, 154, 92); stroke-width: 4px;"/><line x1="293.88" y1="300.433" x2="293.971" y2="315.21" style="fill-opacity: 0; stroke-width: 4; stroke: rgb(186, 154, 92);"/></g></svg>